<svg width="700" height="460" xmlns="http://www.w3.org/2000/svg">
 <metadata id="metadata8">image/svg+xml</metadata>
 <defs>
  <clipPath clipPathUnits="userSpaceOnUse" id="clipPath18">
   <path d="m-159.392868,720.204816l841.89,0l0,-595.28l-841.89,0l0,595.28z" id="path16"/>
  </clipPath>
 </defs>
 <g>
  <title>background</title>
  <rect fill="none" id="canvas_background" height="462" width="702" y="-1" x="-1"/>
 </g>
 <g>
  <title>Layer 1</title>
  <g id="g10" transform="matrix(1.3333333,0,0,-1.3333333,0,793.70667) ">
   <g id="g12">
    <g id="g14" clip-path="url(#clipPath18)">
     <g id="g20">
      <path fill="#89a700" fill-rule="nonzero" d="m289.555343,591.515819c-5.234,0.569 -10.457,1.116 -15.699,1.091c-2.614,0.102 -5.229,-0.045 -7.837,-0.099c-1.303,-0.039 -2.604,-0.18 -3.903,-0.264c-1.3,-0.103 -2.6,-0.168 -3.891,-0.355l-3.873,-0.477c-1.288,-0.167 -2.566,-0.414 -3.848,-0.614c-2.571,-0.368 -5.094,-0.992 -7.629,-1.515c-1.261,-0.291 -2.507,-0.651 -3.759,-0.972l-1.875,-0.495c-0.624,-0.168 -1.236,-0.381 -1.853,-0.57l-3.694,-1.163l-3.634,-1.328l-1.812,-0.668l-1.784,-0.739c-1.186,-0.499 -2.382,-0.974 -3.559,-1.489c-2.317,-1.114 -4.677,-2.132 -6.918,-3.383c-4.565,-2.341 -8.899,-5.085 -13.078,-8.007l-3.093,-2.25c-1.012,-0.773 -1.99,-1.589 -2.994,-2.371l-1.496,-1.186l-1.436,-1.254c-0.952,-0.841 -1.92,-1.664 -2.86,-2.517c-1.813,-1.776 -3.696,-3.48 -5.39,-5.367c-0.853,-0.935 -1.767,-1.816 -2.569,-2.794l-2.458,-2.888c-0.829,-0.955 -1.555,-1.991 -2.337,-2.981c-0.77,-1 -1.552,-1.99 -2.246,-3.043l-2.15,-3.109l-1.992,-3.207l-0.988,-1.606l-0.916,-1.647c-0.605,-1.102 -1.242,-2.185 -1.821,-3.299c-1.09,-2.261 -2.272,-4.478 -3.204,-6.808c-4.02,-9.188 -6.563,-18.982 -7.77,-28.885c-0.206,-1.232 -0.235,-2.481 -0.347,-3.721c-0.078,-1.244 -0.228,-2.482 -0.263,-3.727c-0.024,-2.489 -0.191,-4.978 -0.027,-7.465c0.056,-1.243 0.07,-2.488 0.159,-3.728l0.358,-3.715c0.069,-0.618 0.096,-1.241 0.198,-1.855l0.288,-1.845c0.201,-1.228 0.355,-2.464 0.593,-3.685c0.549,-2.43 0.962,-4.888 1.676,-7.281c0.34,-1.199 0.612,-2.416 1.006,-3.601l1.169,-3.555c1.677,-4.701 3.581,-9.339 5.933,-13.769c9.165,-17.849 23.188,-33.265 39.826,-44.925c16.598,-11.717 36.036,-19.744 56.284,-22.119c1.261,-0.205 2.536,-0.238 3.805,-0.351c1.271,-0.083 2.542,-0.219 3.816,-0.261l3.826,-0.072c0.638,-0.005 1.276,-0.041 1.915,-0.021l1.913,0.07c1.276,0.051 2.554,0.08 3.83,0.148l3.82,0.341c0.636,0.063 1.276,0.101 1.91,0.183l1.902,0.259c1.268,0.179 2.542,0.324 3.807,0.529c2.516,0.483 5.056,0.876 7.545,1.514c1.246,0.309 2.513,0.545 3.745,0.913l3.715,1.044c4.918,1.512 9.787,3.232 14.529,5.28c4.75,2.028 9.414,4.283 13.959,6.773c4.534,2.509 8.943,5.248 13.263,8.132c4.313,2.896 8.494,5.996 12.538,9.272c4.061,3.256 7.971,6.708 11.655,10.403c-6.697,-8.005 -14.487,-15.11 -22.781,-21.572c-4.15,-3.235 -8.494,-6.234 -12.963,-9.059c-4.487,-2.796 -9.126,-5.371 -13.89,-7.728c-4.771,-2.35 -9.73,-4.329 -14.763,-6.128l-3.812,-1.253c-1.266,-0.438 -2.573,-0.746 -3.859,-1.124c-2.568,-0.777 -5.204,-1.309 -7.821,-1.927c-1.316,-0.274 -2.646,-0.486 -3.97,-0.732l-1.99,-0.353c-0.665,-0.107 -1.337,-0.17 -2.005,-0.257l-4.019,-0.485c-1.344,-0.116 -2.693,-0.19 -4.041,-0.286l-2.023,-0.136c-0.675,-0.042 -1.352,-0.027 -2.028,-0.043l-4.059,-0.051c-1.353,0.003 -2.705,0.102 -4.059,0.148c-1.352,0.077 -2.711,0.076 -4.056,0.247c-2.694,0.289 -5.405,0.483 -8.072,0.982l-4.018,0.652l-3.976,0.858c-5.271,1.257 -10.486,2.778 -15.531,4.731l-1.903,0.707l-1.871,0.78c-1.243,0.53 -2.506,1.021 -3.733,1.585c-2.447,1.145 -4.912,2.26 -7.287,3.545c-2.422,1.203 -4.736,2.595 -7.084,3.929c-1.158,0.692 -2.29,1.428 -3.436,2.141l-1.714,1.078l-1.67,1.144l-3.331,2.301l-3.229,2.439c-1.09,0.797 -2.122,1.666 -3.163,2.524c-1.032,0.867 -2.102,1.692 -3.103,2.596c-2.009,1.8 -4.04,3.577 -5.939,5.494c-1.966,1.849 -3.778,3.849 -5.631,5.81c-0.919,0.988 -1.767,2.038 -2.653,3.055l-1.315,1.538c-0.438,0.513 -0.838,1.057 -1.258,1.585l-2.491,3.189l-2.35,3.296l-1.166,1.654l-1.095,1.702c-0.723,1.14 -1.471,2.264 -2.173,3.416c-1.332,2.349 -2.755,4.646 -3.932,7.08c-2.514,4.782 -4.563,9.797 -6.357,14.89l-1.253,3.854c-0.419,1.283 -0.716,2.604 -1.079,3.905c-0.756,2.596 -1.22,5.263 -1.773,7.906c-0.245,1.327 -0.403,2.671 -0.608,4.005l-0.289,2.004c-0.103,0.668 -0.129,1.344 -0.198,2.016l-0.347,4.034c-0.083,1.346 -0.088,2.697 -0.135,4.045c-0.144,2.697 0.051,5.392 0.111,8.087c0.05,1.346 0.224,2.685 0.339,4.026c0.147,1.339 0.212,2.687 0.455,4.012c2.908,21.307 12.144,41.695 26.346,57.801l2.703,2.979c0.885,1.007 1.88,1.913 2.814,2.873c1.856,1.934 3.9,3.677 5.874,5.485c1.019,0.87 2.067,1.706 3.099,2.56l1.555,1.271l1.612,1.199c1.079,0.796 2.143,1.608 3.244,2.37l3.348,2.22c4.516,2.872 9.17,5.535 14.031,7.768c2.391,1.197 4.893,2.154 7.347,3.202c1.246,0.481 2.508,0.922 3.76,1.384l1.882,0.684l1.914,0.59l3.829,1.163l3.878,0.989c0.647,0.159 1.287,0.343 1.94,0.48l1.959,0.403c1.307,0.259 2.605,0.556 3.916,0.784c2.636,0.395 5.25,0.887 7.903,1.119c1.323,0.13 2.639,0.32 3.966,0.396l3.979,0.221c10.609,0.501 21.233,-0.505 31.518,-2.703" id="path22"/>
     </g>
     <g id="g24">
      <path fill="#89a700" fill-rule="nonzero" d="m196.419632,389.606701c0.745,12.024 2.962,21.83 5.006,28.856c0,0 8.033,27.616 26.268,49.62c5.686,6.86 7.508,8.834 7.508,8.834c6.317,6.842 9.78,9.237 12.431,14.69c1.602,3.294 2.207,6.262 2.471,8.136c10.13,-4.764 20.26,-9.527 30.39,-14.291c-4.29,0.594 -11.62,0.992 -19.396,-2.043c-15.824,-6.178 -21.323,-21.828 -23.705,-28.61c-1.462,-4.159 -9.021,-27.264 3.771,-47c17.336,-26.747 60.626,-29.686 67.346,-30.142c4.35,-0.296 9.132,-0.318 9.237,-1.223c0.258,-2.231 -27.806,-10.602 -56.496,-8.783c-32.358,2.053 -55.163,15.47 -64.831,21.956" id="path26"/>
     </g>
     <g id="g28">
      <path fill="#89a700" fill-rule="nonzero" d="m301.86882,466.938213c-0.154,-0.498 -0.338,-0.996 -0.693,-1.452c-0.182,-0.221 -0.408,-0.455 -0.763,-0.577c-0.339,-0.137 -0.815,-0.083 -1.145,0.122c-0.644,0.417 -0.921,0.953 -1.213,1.436c-0.28,0.493 -0.493,0.987 -0.707,1.474c-0.833,1.947 -1.52,3.842 -2.405,5.568c-0.864,1.741 -1.884,3.251 -3.139,4.457c-1.245,1.234 -2.745,2.199 -4.359,2.985c-3.254,1.557 -7.008,2.341 -10.824,2.731c-1.912,0.184 -3.853,0.291 -5.791,0.272c-0.968,-0.007 -1.94,-0.016 -2.889,-0.071c-0.963,-0.056 -1.942,-0.13 -2.864,-0.242c-3.73,-0.4 -7.328,-1.389 -10.658,-2.976c-1.678,-0.782 -3.252,-1.736 -4.736,-2.807c-1.472,-1.093 -2.866,-2.344 -4.234,-3.747c-1.367,-1.39 -2.733,-2.921 -4.12,-4.426c-1.35,-1.475 -2.666,-2.995 -3.935,-4.565c-2.56,-3.131 -4.923,-6.459 -7.284,-9.906c0.926,4.061 2.429,7.996 4.313,11.769c0.951,1.882 1.999,3.726 3.154,5.509c1.128,1.743 2.261,3.478 3.571,5.21c1.297,1.726 2.786,3.434 4.503,4.955c1.708,1.54 3.62,2.835 5.613,3.947c2.003,1.11 4.134,1.99 6.316,2.684c2.192,0.658 4.441,1.115 6.691,1.377c4.452,0.463 8.871,0.342 13.254,-0.353c2.191,-0.36 4.384,-0.857 6.528,-1.603c1.073,-0.363 2.137,-0.794 3.179,-1.276c1.036,-0.506 2.056,-1.057 3.037,-1.694c0.979,-0.643 1.921,-1.351 2.784,-2.167c0.445,-0.385 0.842,-0.837 1.254,-1.259c0.383,-0.457 0.773,-0.9 1.106,-1.396c0.694,-0.956 1.296,-1.997 1.749,-3.051c0.451,-1.058 0.809,-2.12 1.074,-3.18c0.541,-2.12 0.773,-4.222 1.025,-6.22c0.064,-0.498 0.143,-0.986 0.237,-1.446c0.093,-0.454 0.238,-0.903 0.412,-1.135c0.08,-0.11 0.159,-0.18 0.324,-0.191c0.156,-0.015 0.364,0.068 0.559,0.19c0.391,0.259 0.748,0.651 1.076,1.054" id="path30"/>
     </g>
     <g id="g32">
      <path fill="#89a700" fill-rule="nonzero" d="m213.292618,381.887401c-0.922,-0.271 -4.526,4.871 -6.033,12.227c-2.867,13.989 7.754,20.451 14.986,43.558c2.552,8.155 4.637,15.051 3.949,24.363c-0.343,4.651 -1.336,15.945 -9.808,26.319c-8.665,10.609 -19.985,13.926 -23.804,14.988c-21.056,5.857 -42.305,-3.305 -42.281,-3.426c0.034,-0.175 2.803,0.612 7.51,1.188c9.367,1.146 16.604,0.219 18.047,0.058c6.448,-0.719 13.493,-1.505 21.219,-5.548c2.365,-1.238 10.827,-5.442 16.551,-14.823c11.222,-18.394 0.954,-38.281 0.597,-38.794c-0.004,-0.006 -0.59,-0.846 -0.59,-0.846c0,0 -1.185,-6.238 -1.222,-6.433c-1.791,-9.472 3.68,-52.006 0.879,-52.831" id="path34"/>
     </g>
     <g id="g36">
      <path fill="#86a100" fill-rule="nonzero" d="m192.71553,435.975323c0.189,0.086 -0.022,0.812 -0.125,1.496c-0.242,1.613 0.085,3.248 1.331,5.981c2.482,5.44 5.616,8.675 7.561,14.501c0.366,1.096 0.777,2.512 0.521,4.263c-0.36,2.471 -1.837,4.21 -2.728,5.093c-0.589,0.334 -1.52,0.765 -2.721,0.939c-2.731,0.395 -4.872,-0.832 -5.604,-1.246c-4.994,-2.828 -5.422,-10.705 -5.505,-12.224c-0.349,-6.424 2.42,-11.314 4.391,-14.796c0.657,-1.16 2.47,-4.193 2.879,-4.007" id="path38"/>
     </g>
     <g id="g40">
      <path fill="#b4ca00" fill-rule="nonzero" d="m191.758529,437.15501c0.034,0.021 -0.181,0.356 -0.385,0.84c-0.027,0.075 -0.081,0.224 -0.148,0.411c0,0 -0.52,1.453 -0.909,2.677c-0.165,0.519 -1.446,5.44 -0.086,12.202c1.545,7.687 5.428,12.411 6.339,13.314c0.141,0.14 1.409,1.378 1.414,1.373c0,0 0.001,0 -0.058,-0.067c0,0 -0.998,0.264 -1.371,0.343c-0.936,0.201 -1.728,0.054 -2.536,-0.095c-0.133,-0.025 -2.084,-0.402 -3.674,-1.449c-2.48,-1.633 -3.382,-4.435 -4.001,-6.445c-1.395,-4.538 -0.905,-8.677 -0.314,-11.302c0.241,-1.047 0.502,-1.899 0.703,-2.502c0.711,-2.13 1.473,-3.531 2.96,-6.264c0.062,-0.113 0.533,-0.973 1.268,-2.026c0.345,-0.494 0.754,-1.037 0.798,-1.01" id="path42"/>
     </g>
     <g id="g44">
      <path fill="#86a100" fill-rule="nonzero" d="m168.594925,476.488506c0.147,-0.076 0.475,0.463 0.833,0.908c0.844,1.05 1.99,1.738 4.262,2.431c4.525,1.381 8.06,1.116 12.542,3.06c0.843,0.366 1.901,0.879 2.821,2.013c1.297,1.601 1.587,3.527 1.662,4.598c-0.1,0.57 -0.315,1.416 -0.823,2.299c-1.154,2.004 -2.981,2.728 -3.602,2.978c-4.238,1.706 -9.177,-2.364 -10.129,-3.148c-4.028,-3.319 -5.548,-7.83 -6.631,-11.043c-0.361,-1.07 -1.255,-3.931 -0.935,-4.096" id="path46"/>
     </g>
     <g id="g48">
      <path fill="#b4ca00" fill-rule="nonzero" d="m168.814621,477.766308c0.03,-0.011 0.122,0.315 0.308,0.716c0.03,0.059 0.092,0.177 0.17,0.324c0,0 0.606,1.142 1.142,2.072c0.226,0.394 2.523,3.95 7.268,6.795c5.394,3.233 10.203,3.3 11.208,3.203c0.156,-0.015 1.544,-0.161 1.544,-0.167c0,0 -0.001,-0.001 -0.071,0c0,0 -0.35,0.799 -0.492,1.088c-0.357,0.723 -0.848,1.16 -1.349,1.606c-0.082,0.073 -1.303,1.142 -2.74,1.604c-2.241,0.721 -4.381,-0.236 -5.9,-0.942c-3.43,-1.592 -5.661,-4.197 -6.934,-6.034c-0.504,-0.736 -0.882,-1.377 -1.14,-1.841c-0.915,-1.642 -1.367,-2.914 -2.247,-5.396c-0.037,-0.103 -0.312,-0.886 -0.568,-1.948c-0.12,-0.499 -0.238,-1.066 -0.199,-1.08" id="path50"/>
     </g>
     <g id="g52">
      <path fill="#89a700" fill-rule="nonzero" d="m207.78923,429.750713c-1.522,1.111 2.625,9.111 4.713,13.13c0.756,1.453 1.39,2.593 1.979,3.637c1.808,3.201 4.46,7.723 8.006,13.212c3.656,4.049 7.688,9.381 11.072,16.101c1.426,2.832 2.557,5.554 3.46,8.1c0.416,0.778 1.031,2.007 1.627,3.564c2.17,5.663 2.485,11.483 1.463,18.398c-2.182,14.759 -4.051,27.398 -13.203,36.032c-16.347,15.421 -46.636,9.306 -46.649,9.917c-0.015,0.719 29.671,7.103 50.136,-5.602c29.162,-18.105 18.13,-61.642 17.022,-65.754c-0.348,-1.294 -0.625,-2.154 -0.946,-2.936c-1.065,-2.596 -2.18,-4.453 -2.626,-5.143c-3.574,-5.531 -7.979,-11.016 -11.026,-16.113c-5.286,-8.843 -7.374,-18.002 -13.723,-21.276c-0.004,-0.002 -0.096,-0.049 -0.278,-0.142c-10.24,-5.211 -10.705,-5.36 -11.027,-5.125" id="path54"/>
     </g>
     <g id="g56">
      <path fill="#86a100" fill-rule="nonzero" d="m186.829818,536.693615c0.069,-0.168 0.734,0.011 1.355,0.095c1.467,0.197 2.928,-0.111 5.34,-1.248c4.802,-2.265 7.587,-5.086 12.76,-6.878c0.973,-0.337 2.233,-0.718 3.824,-0.51c2.246,0.294 3.879,1.588 4.714,2.371c0.326,0.52 0.756,1.341 0.964,2.407c0.474,2.424 -0.541,4.34 -0.883,4.995c-2.337,4.47 -9.427,4.935 -10.793,5.025c-5.782,0.38 -10.314,-2.027 -13.541,-3.741c-1.075,-0.572 -3.89,-2.15 -3.74,-2.516" id="path58"/>
     </g>
     <g id="g60">
      <path fill="#b4ca00" fill-rule="nonzero" d="m187.935745,537.531505c0.018,-0.03 0.33,0.157 0.775,0.333c0.069,0.023 0.205,0.07 0.377,0.127c0,0 1.333,0.446 2.455,0.779c0.475,0.141 4.971,1.226 11.015,-0.055c6.87,-1.458 10.964,-4.96 11.74,-5.78c0.121,-0.127 1.183,-1.267 1.178,-1.272c0,0 0,0 -0.059,0.053c0,0 0.282,0.884 0.37,1.214c0.222,0.83 0.123,1.536 0.023,2.256c-0.017,0.118 -0.273,1.857 -1.149,3.281c-1.367,2.222 -3.856,3.054 -5.644,3.626c-4.034,1.29 -7.79,0.899 -10.185,0.402c-0.955,-0.203 -1.735,-0.425 -2.287,-0.598c-1.953,-0.608 -3.25,-1.27 -5.78,-2.562c-0.105,-0.054 -0.902,-0.463 -1.883,-1.105c-0.461,-0.302 -0.969,-0.659 -0.946,-0.699" id="path62"/>
     </g>
     <g id="g64">
      <path fill="#86a100" fill-rule="nonzero" d="m212.617447,508.65501c-0.097,-0.108 0.358,-0.468 0.719,-0.836c0.85,-0.87 1.31,-1.927 1.588,-3.909c0.553,-3.947 -0.283,-6.805 0.81,-10.812c0.205,-0.754 0.514,-1.709 1.432,-2.654c1.296,-1.335 3.067,-1.897 4.065,-2.139c0.554,-0.013 1.39,0.021 2.307,0.289c2.084,0.61 3.069,1.988 3.409,2.456c2.314,3.192 -0.71,7.932 -1.292,8.846c-2.466,3.865 -6.473,5.873 -9.326,7.302c-0.951,0.477 -3.504,1.692 -3.712,1.457" id="path66"/>
     </g>
     <g id="g68">
      <path fill="#b4ca00" fill-rule="nonzero" d="m213.786819,508.260021c-0.015,-0.023 0.277,-0.153 0.625,-0.373c0.05,-0.036 0.151,-0.106 0.277,-0.195c0,0 0.978,-0.689 1.768,-1.286c0.334,-0.252 3.31,-2.736 5.209,-7.111c2.158,-4.973 1.424,-8.931 1.166,-9.741c-0.04,-0.126 -0.408,-1.24 -0.414,-1.238l0.013,0.057c0,0 0.812,0.153 1.107,0.221c0.743,0.171 1.236,0.501 1.741,0.838c0.082,0.055 1.293,0.877 1.968,1.979c1.052,1.719 0.503,3.636 0.089,5.003c-0.934,3.083 -3.024,5.354 -4.547,6.707c-0.611,0.538 -1.154,0.957 -1.549,1.247c-1.398,1.027 -2.524,1.612 -4.721,2.752c-0.091,0.048 -0.785,0.406 -1.745,0.795c-0.451,0.182 -0.967,0.374 -0.987,0.345" id="path70"/>
     </g>
     <g id="g72">
      <path fill="#89a700" fill-rule="nonzero" d="m212.061233,522.003612c1.815,1.106 3.847,1.9 5.999,2.352c2.15,0.464 4.43,0.564 6.701,0.256c1.13,-0.169 2.272,-0.39 3.358,-0.793c0.545,-0.19 1.114,-0.346 1.637,-0.596l1.574,-0.755c2.027,-1.128 3.924,-2.531 5.484,-4.216c3.15,-3.353 5.244,-7.466 6.349,-11.727c0.538,-2.139 0.879,-4.317 0.91,-6.511c0.029,-0.545 -0.021,-1.099 -0.03,-1.644l-0.033,-0.818l-0.096,-0.819c-0.073,-0.546 -0.106,-1.074 -0.235,-1.665c-0.06,-0.284 -0.128,-0.56 -0.202,-0.833l-0.294,-0.995l-2.617,1.183c0.791,0.948 1.593,1.888 2.427,2.81c0.414,0.462 0.839,0.918 1.268,1.373c0.445,0.444 0.867,0.902 1.33,1.335c-0.167,-0.608 -0.374,-1.192 -0.56,-1.79c-0.202,-0.587 -0.407,-1.173 -0.623,-1.752c-0.427,-1.162 -0.886,-2.305 -1.356,-3.441l-2.616,1.184c-0.02,-0.052 -0.037,-0.118 -0.046,-0.161l0,0.009l0,0.018l0.001,0.041l0.002,0.084l0.002,0.173l-0.002,0.348c-0.004,0.232 -0.015,0.462 -0.032,0.686c-0.029,0.425 -0.106,0.918 -0.164,1.391c-0.056,0.474 -0.124,0.945 -0.217,1.417c-0.095,0.47 -0.145,0.939 -0.273,1.402c-0.369,1.867 -0.962,3.68 -1.595,5.443c-1.317,3.519 -3.132,6.801 -5.493,9.532l-0.905,1.005c-0.313,0.321 -0.66,0.602 -0.979,0.92c-0.164,0.153 -0.318,0.321 -0.49,0.462l-0.528,0.411c-0.359,0.265 -0.691,0.579 -1.07,0.814l-1.127,0.741c-0.378,0.246 -0.795,0.418 -1.189,0.647c-0.397,0.223 -0.802,0.436 -1.229,0.604c-0.417,0.194 -0.853,0.347 -1.286,0.516c-1.753,0.614 -3.632,1.032 -5.603,1.236c-1.973,0.217 -4.021,0.211 -6.152,0.123" id="path74"/>
     </g>
     <g id="g76">
      <path fill="#89a700" fill-rule="nonzero" d="m213.635422,435.119823c-1.058,0.764 0.231,4.674 2.852,12.464c1.427,4.242 5.536,16.293 8.06,15.846c0.693,-0.123 0.64,-1.091 1.648,-1.394c1.91,-0.574 4.718,1.921 6.04,4.556c1.209,2.408 0.739,4.062 0.959,6.416c0.684,7.348 7.496,7.042 8.739,15.548c1.117,7.641 0.212,11.453 0.212,11.453c-0.124,0.523 -0.266,1.036 -0.303,1.458c-0.028,0.323 0.095,0.805 0.328,0.914c1.165,0.548 6.121,-8.608 13.566,-9.36c2.822,-0.286 2.365,1.004 11.329,3.01c4.689,1.049 8.687,1.563 11.417,1.833c1.227,0.121 2.695,0.278 4.566,0.368c1.433,0.07 2.504,0.072 2.803,0.074c2.606,0.013 11.112,0.17 16.083,0.409c8.857,0.425 15.628,0.751 24.129,3.618c2.276,0.768 3.9,1.456 5.359,2.079c5.166,2.201 13.273,5.657 20.479,12.467c2.999,2.834 5.962,6.362 6.225,6.147c0.042,-0.034 0.01,-0.159 -0.866,-1.802c-0.73,-1.371 -1.4,-2.584 -1.489,-2.735c-0.641,-1.093 -12.45,-17.597 -40.284,-23.291c-6.443,-1.318 -14.248,-2.161 -24.219,-3.236c-2.257,-0.243 -6.162,-0.646 -11.599,-1.396c-5.328,-0.735 -9.297,-1.413 -12.449,-1.955c-7.533,-1.294 -11.3,-1.941 -12.275,-2.394c-6.001,-2.785 -9.325,-8.011 -12.56,-13.086c-2.05,-3.214 -3.392,-5.917 -4.353,-8.268c-4.55,-11.133 -4.97,-12.15 -7.336,-16.096c-5.338,-8.9 -14.867,-15.23 -17.061,-13.647" id="path78"/>
     </g>
     <g id="g80">
      <path fill="#86a100" fill-rule="nonzero" d="m255.582718,553.714123c-0.12,-0.064 0.099,-0.531 0.239,-0.973c0.331,-1.046 0.276,-2.129 -0.292,-3.97c-1.131,-3.665 -2.934,-5.916 -3.66,-9.81c-0.136,-0.733 -0.27,-1.677 0.084,-2.811c0.5,-1.602 1.685,-2.677 2.383,-3.216c0.436,-0.193 1.114,-0.435 1.951,-0.498c1.901,-0.142 3.233,0.753 3.69,1.055c3.112,2.063 2.593,7.235 2.493,8.232c-0.423,4.218 -2.813,7.299 -4.514,9.492c-0.567,0.731 -2.114,2.638 -2.374,2.499" id="path82"/>
     </g>
     <g id="g84">
      <path fill="#b4ca00" fill-rule="nonzero" d="m256.356125,552.983105c-0.021,-0.015 0.16,-0.226 0.349,-0.534c0.026,-0.048 0.078,-0.142 0.143,-0.262c0,0 0.504,-0.928 0.895,-1.712c0.165,-0.332 1.545,-3.497 1.314,-7.979c-0.262,-5.096 -2.422,-8.351 -2.95,-8.982c-0.082,-0.097 -0.818,-0.961 -0.822,-0.958l0.032,0.047c0,0 0.707,-0.131 0.97,-0.167c0.659,-0.091 1.183,0.039 1.718,0.171c0.088,0.022 1.379,0.352 2.354,1.105c1.522,1.174 1.849,3.046 2.063,4.388c0.484,3.028 -0.275,5.715 -0.948,7.407c-0.272,0.674 -0.537,1.221 -0.737,1.606c-0.703,1.364 -1.366,2.247 -2.661,3.972c-0.053,0.071 -0.463,0.614 -1.072,1.271c-0.286,0.309 -0.621,0.647 -0.648,0.627" id="path86"/>
     </g>
     <g id="g88">
      <path fill="#86a100" fill-rule="nonzero" d="m330.85173,492.029522c-0.122,0.1 -0.529,-0.351 -0.945,-0.706c-0.982,-0.838 -2.173,-1.277 -4.402,-1.507c-4.439,-0.458 -7.645,0.461 -12.154,-0.541c-0.849,-0.189 -1.924,-0.477 -2.992,-1.382c-1.508,-1.277 -2.151,-3.054 -2.429,-4.058c-0.018,-0.561 0.014,-1.407 0.31,-2.342c0.673,-2.124 2.215,-3.157 2.738,-3.512c3.573,-2.423 8.918,0.514 9.949,1.08c4.359,2.396 6.64,6.399 8.264,9.249c0.541,0.95 1.923,3.502 1.661,3.719" id="path90"/>
     </g>
     <g id="g92">
      <path fill="#b4ca00" fill-rule="nonzero" d="m330.400131,490.856212c-0.026,0.016 -0.174,-0.277 -0.423,-0.623c-0.04,-0.05 -0.12,-0.15 -0.221,-0.275c0,0 -0.781,-0.972 -1.456,-1.756c-0.286,-0.332 -3.095,-3.28 -8.024,-5.088c-5.601,-2.056 -10.045,-1.212 -10.953,-0.93c-0.141,0.044 -1.391,0.444 -1.389,0.45c0,0 0,0.001 0.064,-0.013c0,0 0.167,-0.826 0.242,-1.127c0.187,-0.756 0.555,-1.263 0.93,-1.783c0.062,-0.085 0.978,-1.331 2.211,-2.043c1.926,-1.108 4.083,-0.602 5.622,-0.218c3.471,0.866 6.035,2.923 7.566,4.428c0.608,0.605 1.081,1.144 1.411,1.536c1.163,1.388 1.827,2.513 3.122,4.707c0.054,0.091 0.461,0.784 0.904,1.745c0.208,0.452 0.427,0.969 0.394,0.99" id="path94"/>
     </g>
     <g id="g96">
      <path fill="#86a100" fill-rule="nonzero" d="m343.538345,470.45631c-0.054,0.104 -0.465,-0.031 -0.854,-0.104c-0.92,-0.171 -1.865,-0.025 -3.459,0.609c-3.176,1.263 -5.103,2.939 -8.487,3.894c-0.637,0.179 -1.457,0.376 -2.455,0.195c-1.409,-0.258 -2.371,-1.121 -2.857,-1.638c-0.177,-0.337 -0.403,-0.866 -0.475,-1.54c-0.164,-1.533 0.589,-2.701 0.843,-3.1c1.736,-2.724 6.261,-2.785 7.134,-2.797c3.69,-0.05 6.429,1.605 8.379,2.784c0.65,0.392 2.347,1.473 2.231,1.697" id="path98"/>
     </g>
     <g id="g100">
      <path fill="#b4ca00" fill-rule="nonzero" d="m342.884018,469.895702c-0.013,0.018 -0.2,-0.109 -0.473,-0.234c-0.042,-0.017 -0.126,-0.05 -0.232,-0.092c0,0 -0.82,-0.322 -1.513,-0.568c-0.294,-0.103 -3.085,-0.929 -6.992,-0.323c-4.442,0.69 -7.239,2.751 -7.778,3.239c-0.084,0.076 -0.822,0.755 -0.819,0.758c0,0 0,0.001 0.04,-0.03c0,0 -0.129,-0.563 -0.166,-0.773c-0.093,-0.528 0.009,-0.966 0.114,-1.414c0.017,-0.074 0.278,-1.154 0.914,-2.018c0.993,-1.348 2.62,-1.788 3.787,-2.088c2.633,-0.677 4.994,-0.31 6.485,0.079c0.594,0.158 1.077,0.323 1.418,0.449c1.205,0.445 1.99,0.902 3.522,1.793c0.064,0.037 0.546,0.319 1.132,0.753c0.275,0.204 0.578,0.445 0.561,0.469" id="path102"/>
     </g>
     <g id="g104">
      <path fill="#86a100" fill-rule="nonzero" d="m170.77803,442.724804c0.117,0.054 -0.064,0.504 -0.173,0.929c-0.256,1.002 -0.146,2.017 0.488,3.716c1.264,3.382 3.085,5.396 3.979,9.016c0.168,0.681 0.345,1.561 0.072,2.648c-0.385,1.534 -1.445,2.612 -2.074,3.16c-0.4,0.206 -1.027,0.472 -1.812,0.579c-1.785,0.242 -3.09,-0.524 -3.536,-0.782c-3.045,-1.763 -2.834,-6.655 -2.793,-7.599c0.172,-3.989 2.259,-7.022 3.745,-9.183c0.496,-0.719 1.852,-2.6 2.104,-2.484" id="path106"/>
     </g>
     <g id="g108">
      <path fill="#b4ca00" fill-rule="nonzero" d="m170.088547,443.45631c0.021,0.013 -0.139,0.221 -0.3,0.521c-0.022,0.047 -0.066,0.139 -0.121,0.255c0,0 -0.425,0.901 -0.752,1.662c-0.138,0.321 -1.268,3.375 -0.81,7.577c0.521,4.777 2.733,7.714 3.264,8.277c0.082,0.087 0.823,0.858 0.827,0.854l-0.033,-0.042c0,0 -0.66,0.163 -0.906,0.212c-0.616,0.124 -1.117,0.032 -1.628,-0.063c-0.085,-0.015 -1.319,-0.252 -2.28,-0.904c-1.498,-1.017 -1.906,-2.759 -2.18,-4.008c-0.62,-2.82 -0.048,-5.39 0.496,-7.019c0.22,-0.65 0.441,-1.179 0.608,-1.553c0.589,-1.322 1.168,-2.191 2.295,-3.886c0.047,-0.071 0.404,-0.604 0.943,-1.257c0.253,-0.306 0.55,-0.643 0.577,-0.626" id="path110"/>
     </g>
     <g id="g112">
      <path fill="#89a700" fill-rule="nonzero" d="m333.698929,547.356212c0.095,0.207 -6.186,3.591 -11.754,5.167c-15.743,4.456 -30.955,-4.094 -36.515,-7.209c-12.481,-6.989 -19.086,-16.306 -24.468,-23.899c-1.724,-2.432 -7.444,-10.759 -10.443,-19.623c-1.921,-5.68 -1.016,-6.529 -3.015,-10.496c-0.355,-0.704 -1.716,-3.321 -1.517,-6.646c0.07,-1.175 0.122,-1.862 0.651,-2.256c1.371,-1.02 4.216,1.211 11.154,5.058c6.008,3.331 8.371,4.152 8.513,6.054c0.129,1.727 -1.68,2.91 -2.554,3.827c-5.723,6.003 1.986,28.549 19.059,41.679c12.597,9.687 26.34,11.209 31.385,11.368c8.501,0.268 15.092,-1.654 15.092,-1.654c2.273,-0.664 4.357,-1.491 4.412,-1.37" id="path114"/>
     </g>
     <g id="g116">
      <path fill="#89a700" fill-rule="nonzero" d="m333.698929,547.356212c-0.334,0.008 -0.654,0.163 -0.977,0.253l-0.964,0.32c-0.642,0.215 -1.287,0.423 -1.935,0.619c-1.296,0.395 -2.627,0.662 -3.959,0.909c-2.668,0.475 -5.372,0.753 -8.08,0.841c-2.709,0.111 -5.421,-0.064 -8.097,-0.452c-2.678,-0.383 -5.325,-0.958 -7.915,-1.718c-5.175,-1.531 -10.112,-3.811 -14.573,-6.759c-4.467,-2.942 -8.447,-6.555 -11.844,-10.631c-3.398,-4.071 -6.268,-8.573 -8.427,-13.359c-1.078,-2.391 -1.992,-4.851 -2.621,-7.356c-0.325,-1.25 -0.569,-2.512 -0.719,-3.768c-0.148,-1.253 -0.23,-2.508 -0.131,-3.707c0.094,-1.19 0.341,-2.351 0.832,-3.242c0.144,-0.197 0.24,-0.447 0.408,-0.604c0.153,-0.184 0.273,-0.344 0.516,-0.548c0.461,-0.422 1.049,-0.902 1.604,-1.572c0.276,-0.337 0.549,-0.721 0.769,-1.19c0.217,-0.469 0.367,-1.023 0.389,-1.592c0.034,-0.558 -0.091,-1.168 -0.334,-1.716c-0.251,-0.558 -0.603,-0.963 -0.936,-1.306c-0.68,-0.659 -1.314,-1.052 -1.936,-1.435c-0.621,-0.377 -1.228,-0.714 -1.829,-1.043c-2.403,-1.301 -4.728,-2.566 -7.05,-3.926l-3.516,-2.05c-0.607,-0.341 -1.206,-0.685 -1.875,-1.015c-0.684,-0.318 -1.338,-0.678 -2.419,-0.868c-0.492,-0.099 -1.329,-0.099 -2.082,0.287c-0.762,0.334 -1.342,1.188 -1.501,1.78c-0.184,0.598 -0.203,1.01 -0.24,1.39c-0.027,0.374 -0.045,0.692 -0.054,1.1c-0.033,1.547 0.212,3.077 0.673,4.514c0.23,0.718 0.51,1.421 0.837,2.093l0.442,0.896c0.143,0.278 0.252,0.554 0.376,0.831c0.466,1.102 0.694,2.185 0.939,3.544c0.241,1.347 0.59,2.751 1.014,4.076c0.427,1.33 0.9,2.631 1.429,3.904c1.049,2.552 2.252,5.021 3.579,7.411c1.314,2.398 2.78,4.703 4.31,6.959c1.543,2.266 3.175,4.411 4.806,6.571c3.28,4.314 6.882,8.475 11.01,12.074c2.06,1.8 4.227,3.484 6.518,4.98c2.283,1.503 4.676,2.854 7.088,4.086c4.825,2.52 9.944,4.524 15.246,5.788c2.656,0.62 5.365,0.987 8.083,1.141c2.725,0.098 5.448,-0.09 8.128,-0.543c0.673,-0.098 1.326,-0.298 1.989,-0.442c0.659,-0.161 1.325,-0.298 1.97,-0.511c1.296,-0.401 2.569,-0.872 3.824,-1.382c1.255,-0.511 2.491,-1.064 3.71,-1.653c0.609,-0.295 1.214,-0.599 1.811,-0.917c0.298,-0.159 0.595,-0.321 0.887,-0.491c0.283,-0.178 0.607,-0.322 0.827,-0.571m0,0c-0.221,0.247 -0.547,0.388 -0.831,0.564c-0.294,0.167 -0.592,0.327 -0.891,0.483c-0.6,0.314 -1.207,0.612 -1.818,0.902c-1.223,0.579 -2.463,1.12 -3.721,1.621c-1.258,0.499 -2.532,0.959 -3.828,1.348c-0.645,0.207 -1.31,0.339 -1.969,0.493c-0.662,0.138 -1.313,0.332 -1.983,0.424c-1.341,0.18 -2.678,0.406 -4.035,0.411c-1.351,0.105 -2.703,0.009 -4.053,-0.031c-2.694,-0.217 -5.367,-0.645 -7.979,-1.322c-5.221,-1.385 -10.163,-3.619 -14.83,-6.281c-2.354,-1.326 -4.623,-2.733 -6.792,-4.29c-2.174,-1.549 -4.213,-3.271 -6.142,-5.1c-3.865,-3.658 -7.185,-7.822 -10.237,-12.196c-1.523,-2.197 -3.061,-4.402 -4.454,-6.641c-1.408,-2.247 -2.698,-4.561 -3.927,-6.894c-1.223,-2.337 -2.316,-4.731 -3.247,-7.165c-0.471,-1.215 -0.884,-2.45 -1.246,-3.68c-0.358,-1.24 -0.63,-2.447 -0.859,-3.737c-0.214,-1.277 -0.523,-2.837 -1.101,-4.215c-0.145,-0.338 -0.285,-0.685 -0.444,-1.007l-0.441,-0.914c-0.256,-0.536 -0.467,-1.085 -0.643,-1.644c-0.348,-1.118 -0.515,-2.273 -0.482,-3.402c0.011,-0.52 0.084,-1.395 0.14,-1.494c0.038,-0.041 -0.121,0.213 -0.254,0.272c-0.15,0.089 -0.27,0.03 -0.102,0.07c0.26,0.038 0.848,0.267 1.378,0.53c0.548,0.263 1.126,0.587 1.7,0.904l3.51,2.007c2.355,1.355 4.795,2.655 7.16,3.911c0.588,0.315 1.166,0.631 1.703,0.95c0.531,0.316 1.054,0.646 1.344,0.928c0.294,0.31 0.289,0.318 0.313,0.541c0.007,0.184 -0.084,0.466 -0.389,0.852c-0.292,0.38 -0.736,0.78 -1.261,1.276c-0.27,0.237 -0.58,0.597 -0.842,0.943c-0.297,0.337 -0.464,0.719 -0.688,1.083c-0.759,1.499 -0.998,3.036 -1.085,4.505c-0.078,1.476 0.043,2.908 0.276,4.302c0.227,1.396 0.551,2.759 0.956,4.088c0.789,2.666 1.861,5.212 3.091,7.666c2.464,4.907 5.623,9.429 9.295,13.48c3.669,4.052 7.914,7.595 12.599,10.414c4.674,2.84 9.79,4.89 15.046,6.295c5.258,1.391 10.722,2.098 16.153,1.827c2.714,-0.111 5.42,-0.412 8.087,-0.91c1.332,-0.258 2.662,-0.536 3.957,-0.943c0.647,-0.201 1.29,-0.415 1.931,-0.635l0.961,-0.328c0.322,-0.093 0.641,-0.25 0.974,-0.261" id="path118"/>
     </g>
     <g id="g120">
      <path fill="#86a100" fill-rule="nonzero" d="m298.338119,508.739513c-0.029,-0.126 -0.535,0.024 -0.997,0.101c-1.091,0.181 -2.113,-0.021 -3.721,-0.829c-3.202,-1.609 -4.867,-3.683 -8.399,-4.926c-0.665,-0.235 -1.532,-0.495 -2.715,-0.303c-1.669,0.27 -3.02,1.285 -3.727,1.895c-0.303,0.4 -0.719,1.031 -1.006,1.842c-0.653,1.843 -0.159,3.271 0.006,3.759c1.13,3.33 6.223,3.529 7.205,3.567c4.154,0.163 7.753,-1.756 10.316,-3.123c0.854,-0.455 3.101,-1.71 3.038,-1.983" id="path122"/>
     </g>
     <g id="g124">
      <path fill="#b4ca00" fill-rule="nonzero" d="m297.427933,509.396709c-0.009,-0.022 -0.259,0.126 -0.605,0.269c-0.053,0.019 -0.158,0.057 -0.291,0.104c0,0 -1.025,0.366 -1.882,0.643c-0.364,0.116 -3.769,1.034 -7.998,0.195c-4.808,-0.953 -7.338,-3.514 -7.798,-4.117c-0.072,-0.094 -0.698,-0.933 -0.694,-0.937l0.036,0.039c0,0 -0.317,0.675 -0.423,0.927c-0.267,0.632 -0.285,1.164 -0.303,1.706c-0.003,0.089 -0.039,1.399 0.417,2.457c0.71,1.652 2.415,2.227 3.641,2.621c2.767,0.888 5.546,0.511 7.35,0.084c0.72,-0.175 1.315,-0.36 1.738,-0.502c1.498,-0.503 2.524,-1.031 4.527,-2.063c0.083,-0.043 0.714,-0.37 1.509,-0.877c0.373,-0.238 0.788,-0.519 0.776,-0.549" id="path126"/>
     </g>
     <g id="g128">
      <path fill="#86a100" fill-rule="nonzero" d="m365.175003,511.502727c-0.203,0.009 -0.32,-0.733 -0.516,-1.387c-0.462,-1.545 -1.436,-2.85 -3.68,-4.714c-4.471,-3.712 -8.595,-5.166 -12.752,-9.464c-0.782,-0.809 -1.738,-1.881 -2.245,-3.554c-0.717,-2.361 -0.141,-4.578 0.276,-5.768c0.381,-0.564 1.022,-1.37 2.01,-2.07c2.246,-1.591 4.652,-1.471 5.471,-1.435c5.596,0.247 9.273,7.059 9.981,8.371c2.999,5.555 2.602,11.16 2.319,15.151c-0.093,1.329 -0.425,4.849 -0.864,4.87" id="path130"/>
     </g>
     <g id="g132">
      <path fill="#b4ca00" fill-rule="nonzero" d="m365.526016,510.01881c-0.039,-0.003 0.01,-0.399 -0.012,-0.922c-0.008,-0.078 -0.022,-0.236 -0.041,-0.432c0,0 -0.15,-1.528 -0.319,-2.793c-0.071,-0.536 -1.001,-5.494 -5.034,-10.891c-4.584,-6.134 -9.992,-8.571 -11.174,-8.962c-0.184,-0.06 -1.822,-0.585 -1.824,-0.578c0,0 -0.001,0 0.079,0.034c0,0 0.771,-0.688 1.067,-0.929c0.743,-0.603 1.504,-0.832 2.28,-1.066c0.128,-0.038 2.009,-0.588 3.852,-0.379c2.874,0.326 4.844,2.409 6.232,3.916c3.133,3.401 4.434,7.304 5.011,9.907c0.226,1.04 0.352,1.917 0.427,2.544c0.265,2.217 0.178,3.808 0.01,6.913c-0.008,0.129 -0.063,1.108 -0.272,2.377c-0.098,0.597 -0.232,1.265 -0.282,1.261" id="path134"/>
     </g>
     <g id="g136">
      <path fill="#86a100" fill-rule="nonzero" d="m254.031418,577.55003c0.065,-0.196 -0.644,-0.519 -1.244,-0.894c-1.416,-0.886 -2.454,-2.206 -3.703,-4.93c-2.487,-5.424 -2.815,-9.876 -5.972,-15.157c-0.594,-0.994 -1.404,-2.232 -2.936,-3.198c-2.163,-1.364 -4.533,-1.419 -5.834,-1.343c-0.667,0.216 -1.646,0.619 -2.615,1.392c-2.201,1.758 -2.737,4.151 -2.924,4.965c-1.278,5.559 4.519,11.072 5.636,12.135c4.728,4.496 10.432,5.675 14.494,6.515c1.353,0.28 4.958,0.94 5.098,0.515" id="path138"/>
     </g>
     <g id="g140">
      <path fill="#b4ca00" fill-rule="nonzero" d="m252.454818,577.479229c0.007,-0.039 -0.401,-0.102 -0.917,-0.27c-0.077,-0.029 -0.229,-0.087 -0.421,-0.161c0,0 -1.484,-0.574 -2.702,-1.094c-0.515,-0.221 -5.211,-2.52 -9.5,-7.987c-4.875,-6.214 -5.834,-12.2 -5.901,-13.47c-0.01,-0.197 -0.088,-1.951 -0.08,-1.951c0,0 0,0 0.012,0.087c0,0 -0.897,0.564 -1.218,0.787c-0.805,0.56 -1.241,1.242 -1.686,1.938c-0.073,0.115 -1.135,1.806 -1.429,3.672c-0.457,2.911 1.085,5.427 2.211,7.21c2.541,4.025 6.083,6.394 8.525,7.689c0.977,0.512 1.817,0.882 2.423,1.13c2.141,0.88 3.754,1.241 6.9,1.945c0.131,0.029 1.123,0.248 2.447,0.399c0.623,0.07 1.327,0.127 1.336,0.076" id="path142"/>
     </g>
     <g id="g144">
      <path fill="#86a100" fill-rule="nonzero" d="m170.786819,511.429424c0.124,-0.099 0.532,0.355 0.95,0.713c0.987,0.846 2.189,1.293 4.446,1.54c4.496,0.492 7.757,-0.404 12.319,0.632c0.858,0.195 1.945,0.491 3.018,1.404c1.515,1.288 2.147,3.07 2.418,4.076c0.013,0.561 -0.03,1.407 -0.34,2.339c-0.706,2.12 -2.28,3.141 -2.815,3.492c-3.65,2.397 -9.037,-0.58 -10.076,-1.154c-4.393,-2.428 -6.662,-6.448 -8.277,-9.311c-0.539,-0.954 -1.912,-3.516 -1.643,-3.731" id="path146"/>
     </g>
     <g id="g148">
      <path fill="#b4ca00" fill-rule="nonzero" d="m171.231643,512.606212c0.026,-0.016 0.173,0.278 0.422,0.626c0.04,0.051 0.12,0.151 0.221,0.277c0,0 0.781,0.978 1.457,1.767c0.286,0.334 3.103,3.302 8.079,5.148c5.657,2.098 10.173,1.286 11.096,1.012c0.143,-0.043 1.415,-0.435 1.413,-0.441l-0.065,0.013c0,0 -0.178,0.825 -0.257,1.125c-0.199,0.755 -0.577,1.26 -0.963,1.776c-0.063,0.085 -1.006,1.324 -2.265,2.026c-1.964,1.095 -4.146,0.573 -5.701,0.177c-3.511,-0.892 -6.088,-2.967 -7.624,-4.485c-0.61,-0.609 -1.084,-1.151 -1.413,-1.546c-1.164,-1.397 -1.825,-2.527 -3.114,-4.73c-0.054,-0.092 -0.459,-0.787 -0.897,-1.752c-0.206,-0.453 -0.423,-0.972 -0.389,-0.993" id="path150"/>
     </g>
     <g id="g152">
      <path fill="#86a100" fill-rule="nonzero" d="m334.963119,540.831829c-0.21,-0.051 -0.17,-0.826 -0.229,-1.537c-0.139,-1.678 -0.855,-3.27 -2.757,-5.798c-3.788,-5.034 -7.711,-7.713 -11.05,-13.239c-0.628,-1.039 -1.377,-2.394 -1.534,-4.214c-0.223,-2.568 0.851,-4.608 1.539,-5.67c0.514,-0.449 1.348,-1.062 2.516,-1.465c2.656,-0.918 5.101,-0.082 5.936,0.198c5.698,1.915 7.996,9.803 8.439,11.324c1.874,6.433 0.247,11.905 -0.912,15.801c-0.386,1.299 -1.492,4.711 -1.948,4.6" id="path154"/>
     </g>
     <g id="g156">
      <path fill="#b4ca00" fill-rule="nonzero" d="m335.646744,539.456829c-0.039,-0.015 0.097,-0.395 0.188,-0.923c0.01,-0.081 0.029,-0.242 0.052,-0.444c0,0 0.179,-1.568 0.281,-2.88c0.042,-0.556 0.166,-5.777 -2.806,-12.362c-3.378,-7.484 -8.407,-11.526 -9.538,-12.268c-0.175,-0.115 -1.745,-1.127 -1.749,-1.121c0,0 0,0 0.075,0.058c0,0 0.942,-0.457 1.298,-0.608c0.895,-0.381 1.727,-0.382 2.576,-0.384c0.14,0 2.193,0.012 4.041,0.769c2.884,1.182 4.457,3.846 5.556,5.763c2.48,4.326 2.968,8.606 2.995,11.374c0.006,1.105 -0.055,2.017 -0.115,2.664c-0.21,2.29 -0.645,3.852 -1.494,6.899c-0.035,0.126 -0.305,1.086 -0.796,2.29c-0.231,0.565 -0.513,1.193 -0.564,1.173" id="path158"/>
     </g>
     <g id="g160">
      <path fill="#86a100" fill-rule="nonzero" d="m313.235031,534.335216c-0.032,-0.154 -0.637,-0.054 -1.188,-0.035c-1.302,0.045 -2.514,-0.352 -4.411,-1.556c-3.778,-2.398 -5.718,-5.108 -9.895,-7.125c-0.786,-0.379 -1.813,-0.822 -3.223,-0.778c-1.991,0.061 -3.618,1.051 -4.471,1.662c-0.369,0.427 -0.876,1.108 -1.234,2.022c-0.812,2.078 -0.253,3.842 -0.065,4.444c1.279,4.112 7.333,5.137 8.501,5.334c4.938,0.835 9.257,-0.876 12.333,-2.094c1.025,-0.406 3.722,-1.541 3.653,-1.874" id="path162"/>
     </g>
     <g id="g164">
      <path fill="#b4ca00" fill-rule="nonzero" d="m312.139328,534.971416c-0.01,-0.028 -0.311,0.108 -0.726,0.224c-0.063,0.014 -0.189,0.043 -0.347,0.078c0,0 -1.227,0.274 -2.253,0.468c-0.434,0.082 -4.503,0.639 -9.517,-1.007c-5.701,-1.872 -8.661,-5.292 -9.196,-6.075c-0.084,-0.122 -0.813,-1.212 -0.808,-1.215l0.042,0.05c0,0 -0.39,0.749 -0.521,1.031c-0.33,0.706 -0.361,1.332 -0.394,1.97c-0.006,0.105 -0.072,1.647 0.449,2.969c0.813,2.062 2.828,3.007 4.279,3.662c3.275,1.478 6.589,1.464 8.742,1.238c0.86,-0.095 1.572,-0.222 2.079,-0.324c1.79,-0.362 3.022,-0.828 5.424,-1.738c0.101,-0.038 0.857,-0.327 1.812,-0.803c0.449,-0.223 0.948,-0.491 0.935,-0.528" id="path166"/>
     </g>
     <g id="g168">
      <path fill="#86a100" fill-rule="nonzero" d="m311.483627,576.532909c0.028,-0.181 -0.654,-0.346 -1.247,-0.573c-1.399,-0.538 -2.526,-1.515 -4.054,-3.678c-3.042,-4.307 -4.009,-8.124 -7.629,-12.196c-0.681,-0.766 -1.592,-1.709 -3.107,-2.298c-2.138,-0.83 -4.264,-0.489 -5.416,-0.209c-0.562,0.297 -1.377,0.808 -2.125,1.64c-1.7,1.89 -1.817,4.058 -1.861,4.796c-0.301,5.042 5.712,8.883 6.872,9.623c4.903,3.133 10.178,3.221 13.935,3.284c1.251,0.021 4.571,0.004 4.632,-0.389" id="path170"/>
     </g>
     <g id="g172">
      <path fill="#b4ca00" fill-rule="nonzero" d="m310.064132,576.730205c0,-0.035 -0.374,-0.022 -0.86,-0.084c-0.074,-0.013 -0.219,-0.039 -0.4,-0.071c0,0 -1.413,-0.256 -2.58,-0.508c-0.494,-0.107 -5.037,-1.334 -9.696,-5.382c-5.295,-4.602 -7.058,-9.649 -7.31,-10.742c-0.039,-0.169 -0.374,-1.681 -0.367,-1.683l0.024,0.074c0,0 -0.716,0.638 -0.969,0.884c-0.634,0.619 -0.921,1.284 -1.213,1.962c-0.048,0.112 -0.741,1.757 -0.721,3.427c0.031,2.605 1.79,4.54 3.066,5.905c2.879,3.081 6.402,4.559 8.779,5.284c0.951,0.285 1.758,0.468 2.336,0.585c2.047,0.413 3.542,0.462 6.459,0.557c0.121,0.004 1.041,0.032 2.247,-0.055c0.567,-0.041 1.204,-0.108 1.205,-0.153" id="path174"/>
     </g>
     <g id="g176">
      <path fill="#89a700" fill-rule="nonzero" d="m259.750717,568.921612c4.019,-1.3 7.715,-3.622 10.828,-6.616c1.527,-1.523 2.947,-3.194 4.088,-5.066c0.619,-0.907 1.078,-1.911 1.584,-2.891c0.236,-0.498 0.415,-1.025 0.623,-1.537l0.3,-0.775l0.237,-0.801c0.142,-0.539 0.32,-1.066 0.422,-1.616l0.297,-1.653c0.083,-0.554 0.091,-1.122 0.138,-1.681c0.054,-0.559 0.047,-1.124 0.007,-1.69c-0.015,-1.128 -0.215,-2.254 -0.435,-3.359l-0.476,-1.631c-0.173,-0.537 -0.396,-1.06 -0.63,-1.571c-0.948,-2.048 -2.319,-3.846 -3.911,-5.322c-1.609,-1.463 -3.425,-2.636 -5.379,-3.44c1.413,1.555 2.708,3.117 3.76,4.777c1.045,1.66 1.871,3.384 2.368,5.162c0.272,0.881 0.379,1.796 0.538,2.688c0.049,0.913 0.165,1.812 0.089,2.727c-0.063,1.816 -0.345,3.646 -0.911,5.418c-0.519,1.781 -1.24,3.529 -2.151,5.201c-0.412,0.859 -0.949,1.655 -1.438,2.486c-0.236,0.422 -0.551,0.792 -0.815,1.199c-0.283,0.393 -0.527,0.82 -0.844,1.191c-2.354,3.126 -5.174,5.983 -8.289,8.8" id="path178"/>
     </g>
     <g id="g180">
      <path fill="#86a100" fill-rule="nonzero" d="m280.405044,585.267803c0.073,-0.082 -0.205,-0.385 -0.419,-0.69c-0.505,-0.722 -0.733,-1.576 -0.767,-3.155c-0.069,-3.145 0.712,-5.373 0.286,-8.587c-0.081,-0.604 -0.215,-1.372 -0.759,-2.156c-0.769,-1.107 -1.915,-1.621 -2.567,-1.852c-0.371,-0.033 -0.935,-0.039 -1.572,0.137c-1.447,0.401 -2.214,1.452 -2.478,1.808c-1.799,2.435 -0.132,6.305 0.19,7.05c1.359,3.156 3.897,4.902 5.704,6.146c0.602,0.414 2.224,1.476 2.382,1.299" id="path182"/>
     </g>
     <g id="g184">
      <path fill="#b4ca00" fill-rule="nonzero" d="m279.649643,584.908428c0.012,-0.017 -0.175,-0.132 -0.391,-0.319c-0.032,-0.031 -0.094,-0.09 -0.171,-0.165c0,0 -0.605,-0.584 -1.089,-1.087c-0.206,-0.214 -2.015,-2.296 -2.954,-5.832c-1.069,-4.019 -0.272,-7.123 -0.037,-7.753c0.037,-0.098 0.37,-0.965 0.37,-0.965c0,0 0.004,0.001 -0.009,0.046c0,0 -0.557,0.089 -0.761,0.132c-0.512,0.106 -0.869,0.347 -1.233,0.593c-0.06,0.041 -0.937,0.643 -1.475,1.489c-0.838,1.319 -0.617,2.857 -0.444,3.954c0.392,2.477 1.621,4.356 2.541,5.487c0.369,0.45 0.701,0.802 0.945,1.047c0.86,0.868 1.572,1.375 2.96,2.364c0.058,0.041 0.496,0.352 1.111,0.697c0.289,0.163 0.621,0.335 0.637,0.312" id="path186"/>
     </g>
     <g id="g188">
      <path fill="#f73c4c" fill-rule="nonzero" d="m330.432327,435.655529c-3.242,-16.206 -20.39,-26.513 -38.301,-23.023c-17.912,3.491 -29.804,19.457 -26.563,35.663c3.242,16.205 20.39,26.513 38.302,23.023c17.911,-3.491 29.804,-19.457 26.562,-35.663" id="path190"/>
     </g>
     <g id="g192">
      <path fill="#e12439" fill-rule="nonzero" d="m330.749222,437.539318c0.289,-0.101 -0.59,-4.646 -2.741,-8.889c0,0 -2.091,-4.127 -5.778,-7.679c-4.702,-4.529 -16.625,-11.832 -30.119,-9.002c-16.251,3.408 -29.338,19.984 -26.563,35.662c2.292,12.949 14.329,19.592 15.909,20.433c10.7,5.693 22.337,3.285 22.393,2.59c0.057,-0.724 -12.5,1.165 -20.653,-6.114c-8.032,-7.171 -11.659,-23.124 -3.836,-34.387c11.283,-16.246 37.076,-9.336 42.042,-4.289c0.729,0.741 4.198,4.697 5.997,6.918c0.918,1.132 1.589,1.966 2.37,3.211c0.68,1.083 0.88,1.581 0.979,1.546" id="path194"/>
     </g>
     <g id="g196">
      <path fill="#909700" fill-rule="nonzero" d="m293.339523,466.365917l-3.954,1.092l0.193,0.68l3.954,-1.091l-0.193,-0.681z" id="path198"/>
     </g>
     <g id="g200">
      <path fill="#86a100" fill-rule="nonzero" d="m266.845443,464.18922c0.131,0.191 0.856,-0.03 1.559,-0.14c1.659,-0.259 3.46,0.059 6.616,1.303c6.286,2.475 10.373,5.633 16.955,7.56c1.238,0.363 2.825,0.768 4.626,0.494c2.543,-0.388 4.076,-1.903 4.824,-2.816c0.23,-0.602 0.491,-1.55 0.423,-2.773c-0.154,-2.778 -1.904,-4.943 -2.497,-5.683c-4.046,-5.051 -12.482,-5.42 -14.109,-5.491c-6.88,-0.3 -11.48,2.554 -14.755,4.587c-1.092,0.677 -3.925,2.545 -3.642,2.959" id="path202"/>
     </g>
     <g id="g204">
      <path fill="#b4ca00" fill-rule="nonzero" d="m267.894729,463.206829c0.029,0.034 0.34,-0.187 0.81,-0.398c0.073,-0.028 0.219,-0.084 0.403,-0.154c0,0 1.431,-0.541 2.646,-0.947c0.515,-0.171 5.46,-1.515 12.912,-0.19c8.47,1.505 14.29,5.411 15.438,6.329c0.179,0.143 1.757,1.421 1.752,1.425c0,0 0,0.001 -0.084,-0.058c0.054,-0.336 0.105,-0.819 0.077,-1.396c-0.026,-0.547 -0.132,-1.359 -0.634,-2.576c-0.254,-0.615 -0.933,-2.191 -2.307,-3.721c-2.251,-2.506 -5.409,-3.399 -7.67,-4.011c-5.1,-1.38 -9.383,-0.847 -12.041,-0.224c-1.058,0.254 -1.907,0.526 -2.503,0.735c-2.108,0.741 -3.432,1.527 -6.016,3.061c-0.107,0.063 -0.92,0.549 -1.88,1.305c-0.451,0.356 -0.941,0.775 -0.903,0.82" id="path206"/>
     </g>
     <g id="g208">
      <path fill="#ff5a64" fill-rule="nonzero" d="m308.308822,465.46513c0.545,0.663 6.833,-2.284 11.104,-7.827c3.21,-4.164 4.76,-9.12 4.072,-9.523c-0.517,-0.303 -2.123,2.071 -8.809,9.739c-5.352,6.137 -6.642,7.276 -6.367,7.611" id="path210"/>
     </g>
     <g id="g212">
      <path fill="#86a100" fill-rule="nonzero" d="m253.308822,454.96513c0.128,0 0.158,0.484 0.242,0.914c0.198,1.014 0.734,1.888 2.037,3.161c2.596,2.536 5.111,3.598 7.474,6.504c0.445,0.546 0.983,1.27 1.203,2.368c0.309,1.551 -0.188,2.971 -0.523,3.73c-0.274,0.354 -0.727,0.857 -1.393,1.282c-1.513,0.966 -3.023,0.818 -3.538,0.77c-3.515,-0.323 -5.424,-4.843 -5.792,-5.714c-1.557,-3.686 -0.968,-7.307 -0.549,-9.885c0.139,-0.859 0.561,-3.13 0.839,-3.13" id="path214"/>
     </g>
     <g id="g216">
      <path fill="#b4ca00" fill-rule="nonzero" d="m252.997726,455.91621c0.024,0.003 -0.031,0.258 -0.048,0.598c0,0.051 0,0.153 0,0.281c0,0 0.002,0.994 0.032,1.819c0.013,0.349 0.3,3.589 2.519,7.203c2.522,4.108 5.787,5.845 6.51,6.133c0.112,0.044 1.113,0.432 1.115,0.427l-0.047,-0.024c0,0 -0.528,0.424 -0.73,0.571c-0.505,0.369 -0.998,0.495 -1.502,0.624c-0.083,0.021 -1.304,0.323 -2.453,0.134c-1.793,-0.295 -2.911,-1.702 -3.696,-2.719c-1.771,-2.295 -2.357,-4.862 -2.564,-6.565c-0.079,-0.681 -0.106,-1.253 -0.115,-1.661c-0.034,-1.444 0.117,-2.473 0.41,-4.48c0.012,-0.083 0.107,-0.716 0.315,-1.532c0.098,-0.384 0.222,-0.813 0.254,-0.809" id="path218"/>
     </g>
     <g id="g220">
      <path fill="#8baa00" fill-rule="nonzero" d="m43.491424,277.885509c0.169,-2.731 1.026,-7.333 2.563,-13.806c0.228,-1.052 -0.213,-2.354 -1.324,-3.907c-1.112,-1.552 -2.338,-2.604 -3.678,-3.155c-1.338,-0.551 -2.521,-0.223 -3.547,0.987c-0.115,0.106 -0.23,0.264 -0.343,0.472c-0.286,0.473 -0.427,1.052 -0.427,1.738l-0.77,0.473c-8.096,9.629 -16.417,18.829 -24.969,27.615l0,-29.195c0,-1.474 -1.082,-3.026 -3.249,-4.653c-2.279,-1.686 -3.932,-2.029 -4.96,-1.028c-0.34,0.37 -0.57,0.894 -0.683,1.58c-0.056,0.102 -0.143,0.315 -0.256,0.63c-1.256,1.316 -1.169,3.077 0.256,5.287l0,42.689c0,1.682 1.054,3.262 3.164,4.735c2.108,1.469 3.733,1.761 4.873,0.867c0.571,-0.473 0.855,-1.316 0.855,-2.526l0,-2.761c6.843,-6.576 14.678,-14.917 23.516,-25.013c0,0.101 -0.016,0.245 -0.042,0.43c-0.031,0.186 -0.044,0.307 -0.044,0.357c0,1.367 -0.057,3.485 -0.172,6.353c-0.113,2.864 -0.185,5.208 -0.214,7.02c-0.028,1.817 0.101,3.935 0.386,6.353c0.286,2.419 0.797,4.551 1.539,6.395c0.683,1.733 2.167,3.077 4.446,4.022c2.108,0.95 3.477,0.843 4.106,-0.315c0.34,-0.63 0.256,-1.603 -0.258,-2.919c-0.512,-1.261 -0.785,-2.711 -0.812,-4.342c-0.029,-1.631 0.027,-3.42 0.171,-5.366c0.143,-1.946 0.185,-3.471 0.129,-4.574c-0.458,-6 -0.542,-10.81 -0.256,-14.443" id="path222"/>
     </g>
     <g id="g224">
      <path fill="#8baa00" fill-rule="nonzero" d="m71.878631,273.629116c1.31,0.158 3.277,0.445 5.899,0.867c2.622,0.422 4.589,0.709 5.901,0.866c-0.058,0.32 -0.129,0.776 -0.213,1.379c-0.087,0.607 -0.129,1.038 -0.129,1.302c-0.399,6.524 -0.97,12.205 -1.711,17.047c-1.31,-1.946 -2.937,-4.828 -4.874,-8.642c-1.939,-3.813 -3.108,-6.065 -3.504,-6.746c-0.913,-1.58 -1.883,-3.42 -2.909,-5.521c0.627,0 1.141,-0.186 1.54,-0.552m20.948,8.598c0.287,-2.576 1.054,-6.665 2.31,-12.268c1.254,-5.602 1.995,-9.93 2.223,-12.979c0.113,-1.631 -0.969,-3.262 -3.249,-4.893c-2.281,-1.631 -4.049,-2.053 -5.302,-1.265c-0.627,0.37 -0.97,1.029 -1.026,1.974c-0.172,2.368 -1.026,7.104 -2.566,14.202c-0.056,0 -0.242,-0.037 -0.554,-0.116c-0.315,-0.078 -0.528,-0.12 -0.643,-0.12c-2.28,0.158 -5.472,-0.116 -9.575,-0.829c-4.106,-0.709 -6.956,-1.09 -8.552,-1.145c-1.197,-2.521 -2.394,-4.866 -3.592,-7.02c-0.114,-0.737 -0.457,-1.529 -1.025,-2.368c-0.683,-0.945 -1.197,-1.631 -1.54,-2.053c-1.369,-1.946 -3.108,-2.919 -5.216,-2.919c-1.709,0 -2.65,0.658 -2.822,1.974c-0.115,0.945 0.256,2.053 1.113,3.313c1.993,3.049 4.117,6.997 6.369,11.835c2.253,4.842 4.204,9.232 5.859,13.176c1.652,3.948 3.833,8.113 6.54,12.511c2.706,4.388 5.6,8.035 8.68,10.926c0.341,1.84 1.637,3.513 3.89,5.009c2.251,1.502 3.861,1.701 4.831,0.594l0.427,-0.867c0.455,-1.738 0.685,-2.71 0.685,-2.919c0.512,-2.317 0.912,-4.801 1.198,-7.46c0.284,-2.656 0.554,-5.589 0.812,-8.795c0.256,-3.212 0.498,-5.709 0.725,-7.498" id="path226"/>
     </g>
     <g id="g228">
      <path fill="#8baa00" fill-rule="nonzero" d="m142.164718,307.870312c2.108,0.056 3.021,-0.903 2.737,-2.877c-0.286,-1.975 -1.368,-3.67 -3.251,-5.093c-1.026,-0.737 -1.967,-1.131 -2.822,-1.181c-1.938,-0.052 -6.298,-0.394 -13.082,-1.025c0.343,-0.899 0.456,-2.974 0.343,-6.237c-0.23,-6.519 -0.23,-10.889 0,-13.095c0.568,-4.89 0.854,-11.549 0.854,-19.964c0,-1.682 -1.056,-3.262 -3.164,-4.736c-2.11,-1.474 -3.735,-1.761 -4.873,-0.867c-0.571,0.473 -0.855,1.317 -0.855,2.526c0,2.261 -0.201,5.616 -0.598,10.06c-0.402,4.444 -0.599,7.747 -0.599,9.902l0,10.572c0.113,1.895 -0.286,5.366 -1.197,10.417c0,0.106 0.012,0.236 0.042,0.394c0.028,0.157 0.043,0.292 0.043,0.393c-6.613,-0.101 -11.317,-0.579 -14.108,-1.418c-2.395,-0.736 -3.62,-0.157 -3.679,1.738c-0.056,1.84 0.742,3.629 2.395,5.366c0.798,0.788 1.596,1.312 2.394,1.576c1.882,0.579 3.805,0.986 5.772,1.223c1.967,0.236 4.474,0.422 7.526,0.552c3.047,0.129 5.028,0.222 5.941,0.277c0.97,0.052 3.92,0.288 8.85,0.709c4.932,0.422 8.709,0.686 11.331,0.788" id="path230"/>
     </g>
     <g id="g232">
      <path fill="#8baa00" fill-rule="nonzero" d="m192.01683,285.934322c0.396,-2.47 0.411,-4.615 0.042,-6.432c-0.371,-1.812 -0.556,-3.89 -0.556,-6.23c0,-2.34 0.483,-4.458 1.453,-6.353c0.798,-1.575 0.228,-3.47 -1.709,-5.681c-1.768,-1.946 -3.42,-2.812 -4.96,-2.604c-0.742,0.107 -1.282,0.529 -1.624,1.265c-0.116,0.26 -0.245,0.63 -0.386,1.103c-0.143,0.473 -0.244,0.787 -0.3,0.945c-2.338,-1.682 -5.671,-3.076 -10.002,-4.18c-0.458,-0.106 -1.512,-0.384 -3.165,-0.829c-1.655,-0.449 -2.922,-0.751 -3.805,-0.908c-0.885,-0.158 -2.04,-0.329 -3.465,-0.51c-1.424,-0.185 -2.706,-0.185 -3.847,0c-1.141,0.181 -2.195,0.538 -3.162,1.061c-1.598,0.844 -2.909,1.831 -3.934,2.961c-1.026,1.131 -1.768,2.498 -2.223,4.106c-0.458,1.603 -0.756,2.998 -0.899,4.18c-0.144,1.186 -0.256,2.826 -0.341,4.93c-0.087,2.104 -0.187,3.631 -0.3,4.576c-0.969,10.101 -0.228,18.229 2.223,24.383c0.685,1.682 2.167,2.998 4.446,3.947c2.223,0.946 3.619,0.867 4.19,-0.236c0.343,-0.685 0.258,-1.659 -0.256,-2.924c-1.995,-4.837 -2.65,-10.676 -1.967,-17.515c0.115,-0.844 0.157,-2.563 0.129,-5.167c-0.03,-2.604 0.085,-4.932 0.343,-6.985c0.256,-2.049 0.812,-3.629 1.666,-4.732c1.026,-1.422 2.353,-2.344 3.977,-2.761c1.624,-0.422 2.934,-0.556 3.932,-0.394c0.998,0.157 2.636,0.473 4.918,0.945c2.678,0.58 4.758,1.131 6.242,1.655c0.626,0.213 1.966,0.922 4.018,2.131c0,0.737 0.056,2.081 0.172,4.027c0.112,1.946 0.171,3.64 0.171,5.085c0,1.446 -0.115,2.855 -0.343,4.222c-1.253,9.049 -0.627,16.385 1.881,22.015c0.797,1.686 2.366,3.003 4.704,3.947c2.279,0.895 3.648,0.737 4.103,-0.472c0.228,-0.635 0.087,-1.529 -0.427,-2.683c-0.627,-1.371 -1.068,-4.17 -1.324,-8.406c-0.259,-4.235 -0.129,-8.062 0.385,-11.482" id="path234"/>
     </g>
     <g id="g236">
      <path fill="#8baa00" fill-rule="nonzero" d="m219.634018,281.754619c2.85,1.26 5.514,2.864 7.995,4.814c2.479,1.942 3.775,3.995 3.89,6.154c0.113,2.053 -0.585,3.693 -2.096,4.93c-1.51,1.238 -3.536,2.012 -6.071,2.331c-2.537,0.315 -5.058,0.417 -7.568,0.315c-2.507,-0.106 -4.988,-0.37 -7.439,-0.792c0.057,-1.891 -0.085,-4.643 -0.427,-8.244c-0.343,-3.605 -0.512,-6.223 -0.512,-7.854l0,-4.337c5.014,0.366 9.092,1.261 12.228,2.683m20.437,12.623c-0.973,-4.208 -3.081,-7.98 -6.329,-11.321c-3.249,-3.341 -7.212,-6.144 -11.885,-8.403c0.284,-0.316 0.939,-1.08 1.967,-2.289c1.026,-1.21 1.751,-2.039 2.178,-2.484c0.43,-0.45 1.127,-1.186 2.097,-2.21c0.969,-1.024 1.765,-1.803 2.394,-2.327c0.627,-0.528 1.38,-1.121 2.265,-1.774c0.883,-0.663 1.754,-1.2 2.608,-1.622c0.854,-0.422 1.74,-0.737 2.65,-0.945c1.939,-0.473 2.423,-1.868 1.456,-4.18c-0.801,-2.053 -2.139,-3.554 -4.019,-4.5c-1.028,-0.472 -1.967,-0.607 -2.824,-0.393c-2.735,0.681 -5.286,1.997 -7.652,3.943c-2.366,1.946 -4.974,4.55 -7.824,7.813c-2.85,3.262 -4.761,5.365 -5.728,6.311c-0.059,0.055 -0.23,0.342 -0.514,0.871c-1.709,-0.315 -2.878,-0.529 -3.505,-0.635l0,-12.228l0,-0.552c0,-1.686 -1.056,-3.262 -3.164,-4.736c-2.11,-1.473 -3.735,-1.765 -4.873,-0.866c-0.573,0.472 -0.857,1.311 -0.857,2.526l0,0.551l0,22.091c0,1.525 0.2,3.999 0.599,7.419c0.398,3.42 0.626,6.047 0.685,7.891c0.056,1.84 -0.258,4.208 -0.941,7.099c-0.63,1.58 0.014,3.406 1.925,5.487c1.908,2.075 3.575,2.956 5.002,2.641c2.563,0.686 5.399,1.195 8.507,1.538c3.105,0.343 6.371,0.385 9.791,0.12c3.42,-0.263 6.441,-0.866 9.063,-1.816c2.622,-0.945 4.617,-2.539 5.986,-4.772c1.369,-2.239 1.681,-4.986 0.942,-8.248" id="path238"/>
     </g>
     <g id="g240">
      <path fill="#8baa00" fill-rule="nonzero" d="m276.579818,279.071514c-5.528,-0.056 -13.765,-0.871 -24.711,-2.446c0.514,-9.099 0.77,-13.807 0.77,-14.122c6.441,1.733 15.133,2.604 26.079,2.604c2.167,0 3.078,-1.028 2.737,-3.081c-0.342,-1.946 -1.427,-3.628 -3.251,-5.046c-0.969,-0.742 -1.908,-1.108 -2.821,-1.108c-4.047,0 -7.268,-0.037 -9.662,-0.115c-2.394,-0.08 -5.289,-0.357 -8.679,-0.83c-3.392,-0.473 -6.485,-1.187 -9.276,-2.132c-0.801,-0.37 -1.656,-0.393 -2.566,-0.078c-0.913,0.314 -1.369,0.917 -1.369,1.816c-0.059,2.734 -0.256,6.811 -0.599,12.228c-0.342,5.417 -0.542,9.47 -0.598,12.153c0,1.946 0.27,5.273 0.812,9.981c0.542,4.708 0.669,8.378 0.385,11.005c0,0.95 0.113,1.687 0.343,2.21c0.455,1.21 1.197,2.275 2.223,3.197c1.026,0.918 2.223,1.511 3.591,1.775c11.4,2.211 22.174,3.341 32.322,3.392c2.166,0.056 3.077,-0.945 2.737,-2.998c-0.343,-1.997 -1.427,-3.707 -3.251,-5.13c-0.97,-0.736 -1.911,-1.102 -2.822,-1.102c-7.922,-0.051 -16.617,-0.867 -26.08,-2.447c-0.056,-1.474 -0.241,-3.698 -0.556,-6.668c-0.312,-2.97 -0.526,-5.222 -0.641,-6.746c1.083,0.157 2.909,0.421 5.474,0.787c2.564,0.371 4.545,0.635 5.942,0.793c1.397,0.157 3.164,0.352 5.302,0.588c2.137,0.241 4.132,0.422 5.984,0.556c1.852,0.13 3.693,0.194 5.516,0.194c2.167,0.052 3.078,-0.945 2.738,-2.998c-0.343,-1.945 -1.427,-3.628 -3.252,-5.05c-1.026,-0.737 -1.965,-1.131 -2.821,-1.182" id="path242"/>
     </g>
     <g id="g244">
      <path fill="#e12439" fill-rule="nonzero" d="m359.692154,308.505611c2.167,0 3.077,-1.029 2.737,-3.077c-0.343,-1.951 -1.427,-3.633 -3.251,-5.051c-0.97,-0.737 -1.911,-1.107 -2.822,-1.107c-12.141,0 -21.634,-0.816 -28.474,-2.447c-0.455,-3.105 -0.57,-7.335 -0.34,-12.701c2.336,-0.056 4.089,-0.107 5.258,-0.158c1.166,-0.055 2.906,0.051 5.216,0.315c2.307,0.26 4.047,0.473 5.216,0.631c1.167,0.157 2.906,0.408 5.216,0.75c2.307,0.339 4.061,0.589 5.258,0.746c1.824,0.265 2.707,-0.394 2.65,-1.969c-0.115,-1.844 -1.082,-3.684 -2.906,-5.523c-1.085,-1.001 -2.11,-1.58 -3.08,-1.738c-10.547,-1.523 -18.098,-2.315 -22.659,-2.366l0,-15.783l0,-0.472c0,-1.682 -1.054,-3.262 -3.162,-4.736c-2.11,-1.473 -3.735,-1.76 -4.876,-0.866c-0.57,0.472 -0.854,1.288 -0.854,2.447c0,15.411 -0.028,24.093 -0.085,26.039c0,2.683 -0.014,5.18 -0.044,7.493c-0.028,2.317 0.185,4.777 0.643,7.381c0.455,2.605 1.167,5.009 2.136,7.22c0.742,1.682 2.251,2.97 4.533,3.864c2.279,0.895 3.676,0.765 4.19,-0.393c0.113,-0.316 0.141,-0.687 0.084,-1.103c7.867,1.732 17.672,2.604 29.416,2.604" id="path246"/>
     </g>
     <g id="g248">
      <path fill="#e12439" fill-rule="nonzero" d="m409.543655,278.20042c0.287,1.844 0.315,4.133 0.087,6.867c-0.228,2.734 -0.941,4.917 -2.138,6.548c-1.538,2.104 -3.62,3.869 -6.242,5.287c-0.914,-0.681 -1.796,-1.024 -2.65,-1.024c-4.677,0.051 -9.151,-1.094 -13.425,-3.434c-4.275,-2.34 -7.526,-5.431 -9.749,-9.272c-1.484,-2.525 -2.307,-5.037 -2.479,-7.532c-0.171,-2.498 0.455,-4.842 1.88,-7.025c1.425,-2.183 3.648,-3.8 6.672,-4.852c6.725,-2.316 12.953,-2.159 18.683,0.473c5.727,2.632 8.849,7.289 9.361,13.964m-13.594,28.882c3.305,0.895 6.383,0.923 9.235,0.079c2.85,-0.843 5.143,-2.275 6.882,-4.3c1.74,-2.025 3.221,-4.393 4.447,-7.103c1.225,-2.706 1.91,-5.496 2.051,-8.365c0.144,-2.868 0.014,-5.537 -0.382,-8.006c-0.801,-3.891 -2.325,-7.64 -4.576,-11.245c-2.253,-3.605 -5.032,-6.733 -8.337,-9.387c-3.308,-2.66 -7.026,-4.528 -11.16,-5.603c-4.134,-1.079 -8.535,-1.042 -13.209,0.116c-5.131,1.316 -9.108,3.327 -11.929,6.038c-2.822,2.71 -4.404,5.667 -4.747,8.878c-0.34,3.207 0.129,6.626 1.411,10.257c1.284,3.628 3.235,7.062 5.859,10.296c2.62,3.234 5.742,6.154 9.362,8.758c3.619,2.604 7.368,4.564 11.244,5.88c1.028,2.053 2.309,3.286 3.849,3.707" id="path250"/>
     </g>
     <g id="g252">
      <path fill="#e12439" fill-rule="nonzero" d="m468.884048,278.20042c0.286,1.844 0.314,4.133 0.087,6.867c-0.228,2.734 -0.941,4.917 -2.139,6.548c-1.537,2.104 -3.619,3.869 -6.241,5.287c-0.914,-0.681 -1.796,-1.024 -2.651,-1.024c-4.676,0.051 -9.15,-1.094 -13.425,-3.434c-4.274,-2.34 -7.525,-5.431 -9.748,-9.272c-1.484,-2.525 -2.308,-5.037 -2.479,-7.532c-0.172,-2.498 0.455,-4.842 1.88,-7.025c1.425,-2.183 3.648,-3.8 6.672,-4.852c6.725,-2.316 12.953,-2.159 18.683,0.473c5.727,2.632 8.849,7.289 9.361,13.964m-13.594,28.882c3.305,0.895 6.383,0.923 9.235,0.079c2.85,-0.843 5.143,-2.275 6.882,-4.3c1.74,-2.025 3.221,-4.393 4.446,-7.103c1.226,-2.706 1.911,-5.496 2.052,-8.365c0.143,-2.868 0.014,-5.537 -0.383,-8.006c-0.8,-3.891 -2.324,-7.64 -4.575,-11.245c-2.253,-3.605 -5.033,-6.733 -8.338,-9.387c-3.307,-2.66 -7.025,-4.528 -11.159,-5.603c-4.134,-1.079 -8.535,-1.042 -13.209,0.116c-5.131,1.316 -9.108,3.327 -11.93,6.038c-2.821,2.71 -4.404,5.667 -4.746,8.878c-0.341,3.207 0.129,6.626 1.411,10.257c1.283,3.628 3.235,7.062 5.859,10.296c2.619,3.234 5.741,6.154 9.362,8.758c3.619,2.604 7.368,4.564 11.243,5.88c1.028,2.053 2.31,3.286 3.85,3.707" id="path254"/>
     </g>
     <g id="g256">
      <path fill="#e12439" fill-rule="nonzero" d="m513.263809,284.043712c0.74,2.155 1.096,4.258 1.068,6.311c-0.028,2.053 -0.427,3.92 -1.197,5.603c-0.77,1.682 -2.136,2.946 -4.103,3.785c-1.967,0.843 -4.404,1.052 -7.312,0.635c-1.198,-0.158 -2.895,-0.421 -5.087,-0.792c-2.195,-0.366 -3.836,-0.63 -4.918,-0.788l0,-37.323c1.368,0.737 3.791,2.711 7.27,5.918c0.284,0.264 1.026,0.922 2.223,1.974c1.197,1.052 2.037,1.802 2.521,2.252c0.484,0.445 1.24,1.167 2.267,2.168c1.026,0.996 1.808,1.826 2.351,2.482c0.542,0.657 1.183,1.445 1.924,2.367c0.74,0.923 1.352,1.826 1.838,2.725c0.484,0.894 0.869,1.784 1.155,2.683m7.012,20.986c5.129,-4.522 5.157,-12.177 0.084,-22.96c-3.305,-6.893 -9.69,-14.149 -19.152,-21.776c-0.172,-0.107 -0.643,-0.473 -1.411,-1.108c-0.77,-0.63 -1.284,-1.052 -1.54,-1.26c-0.256,-0.214 -0.756,-0.607 -1.497,-1.187c-0.74,-0.579 -1.31,-0.982 -1.709,-1.218c-0.399,-0.241 -0.956,-0.593 -1.667,-1.066c-0.714,-0.477 -1.34,-0.82 -1.883,-1.029c-0.542,-0.208 -1.14,-0.444 -1.796,-0.709c-0.654,-0.264 -1.312,-0.463 -1.966,-0.593c-0.656,-0.129 -1.296,-0.194 -1.923,-0.194c-0.059,0 -0.256,-0.028 -0.599,-0.079l-0.598,-0.079c-1.484,0.158 -2.083,1.052 -1.796,2.683l0,1.418l0,43.161c0,1.265 0.568,2.419 1.709,3.471c0.627,1.209 1.455,2.317 2.481,3.318c1.026,0.996 2.052,1.524 3.078,1.575c1.823,0.107 4.431,0.422 7.823,0.95c3.392,0.524 6.099,0.894 8.125,1.103c2.021,0.209 4.373,-0.014 7.054,-0.672c2.678,-0.658 5.072,-1.904 7.183,-3.749" id="path258"/>
     </g>
    </g>
   </g>
  </g>
 </g>
</svg>